<svg width="50" height="50" viewBox="0 0 50 50" fill="none" xmlns="http://www.w3.org/2000/svg">
<path d="M44.5544 22.8652H11.9616L31.4694 5.78652C31.7813 5.51124 31.5919 5 31.1797 5H26.2499C26.0326 5 25.8265 5.07865 25.665 5.2191L4.61422 23.6404C4.42142 23.809 4.26679 24.0174 4.16082 24.2515C4.05484 24.4855 4 24.7399 4 24.9972C4 25.2545 4.05484 25.5088 4.16082 25.7429C4.26679 25.977 4.42142 26.1854 4.61422 26.3539L25.7875 44.8876C25.8711 44.9607 25.9713 45 26.0772 45H31.1741C31.5863 45 31.7757 44.4831 31.4638 44.2135L11.9616 27.1348H44.5544C44.7995 27.1348 45 26.9326 45 26.6854V23.3146C45 23.0674 44.7995 22.8652 44.5544 22.8652Z" fill="black" fill-opacity="0.85"/>
</svg>
