<svg width="50" height="50" viewBox="0 0 50 50" fill="none" xmlns="http://www.w3.org/2000/svg">
<path d="M5.44564 22.8652H38.0384L18.5306 5.78652C18.2187 5.51124 18.4081 5 18.8203 5H23.7501C23.9674 5 24.1735 5.07865 24.335 5.2191L45.3858 23.6404C45.5786 23.809 45.7332 24.0174 45.8392 24.2515C45.9452 24.4855 46 24.7399 46 24.9972C46 25.2545 45.9452 25.5088 45.8392 25.7429C45.7332 25.977 45.5786 26.1854 45.3858 26.3539L24.2125 44.8876C24.1289 44.9607 24.0287 45 23.9228 45H18.8259C18.4137 45 18.2243 44.4831 18.5362 44.2135L38.0384 27.1348H5.44564C5.20053 27.1348 5 26.9326 5 26.6854V23.3146C5 23.0674 5.20053 22.8652 5.44564 22.8652Z" fill="black" fill-opacity="0.85"/>
</svg>
